<svg width="16" height="16" viewBox="0 0 16 16" fill="none" xmlns="http://www.w3.org/2000/svg">
<g id="vuesax/bold/3d-rotate">
<g id="3d-rotate">
<g id="Group">
<path id="Vector" d="M10 15.1666C9.82 15.1666 9.65333 15.0666 9.56666 14.9133C9.48 14.7533 9.47999 14.5666 9.57333 14.4066L10.2733 13.24C10.4133 13.0066 10.72 12.9266 10.96 13.0666C11.2 13.2066 11.2733 13.5133 11.1333 13.7533L10.9533 14.0533C12.7933 13.62 14.1733 11.9666 14.1733 9.99329C14.1733 9.71995 14.4 9.49329 14.6733 9.49329C14.9467 9.49329 15.1733 9.71995 15.1733 9.99329C15.1667 12.8466 12.8467 15.1666 10 15.1666Z" fill="#426EFF"/>
</g>
<g id="Group_2">
<path id="Vector_2" d="M1.33334 6.50004C1.06001 6.50004 0.833344 6.27337 0.833344 6.00004C0.833344 3.15337 3.15334 0.833374 6.00001 0.833374C6.18001 0.833374 6.34668 0.933374 6.43334 1.08671C6.52001 1.24671 6.52001 1.43337 6.42668 1.59337L5.72668 2.76004C5.58668 2.99337 5.28001 3.07337 5.04001 2.92671C4.80668 2.78671 4.72668 2.48004 4.87334 2.24004L5.05334 1.94004C3.20668 2.37337 1.83334 4.02671 1.83334 6.00004C1.83334 6.27337 1.60668 6.50004 1.33334 6.50004Z" fill="#426EFF"/>
</g>
<path id="Vector_3" d="M10.9333 5.47335L8.42668 4.12001C8.16001 3.98001 7.84668 3.98001 7.58001 4.12001L5.06668 5.47335C4.88668 5.57335 4.77335 5.76668 4.77335 5.98002C4.77335 6.20002 4.88668 6.39335 5.06668 6.49335L7.57335 7.84668C7.70668 7.92002 7.85335 7.95335 8.00001 7.95335C8.14668 7.95335 8.29335 7.92002 8.42668 7.84668L10.9333 6.49335C11.1133 6.39335 11.2267 6.20002 11.2267 5.98002C11.2267 5.76668 11.1133 5.57335 10.9333 5.47335Z" fill="#426EFF"/>
<path id="Vector_4" d="M7.16 8.31329L4.82667 7.14662C4.64667 7.05995 4.44 7.06662 4.26667 7.17329C4.1 7.27995 4 7.45995 4 7.65995V9.86662C4 10.2466 4.21333 10.5933 4.55333 10.76L6.88667 11.9266C6.96667 11.9666 7.05333 11.9866 7.14667 11.9866C7.25333 11.9866 7.35333 11.96 7.44667 11.9C7.62 11.7933 7.72 11.6133 7.72 11.4133V9.20662C7.71333 8.82662 7.50667 8.48662 7.16 8.31329Z" fill="#426EFF"/>
<path id="Vector_5" d="M11.7267 7.17329C11.5533 7.06662 11.3467 7.05995 11.1667 7.14662L8.83333 8.31329C8.49333 8.48662 8.28 8.82662 8.28 9.20662V11.4133C8.28 11.6133 8.38 11.7933 8.55333 11.9C8.64667 11.96 8.74667 11.9866 8.85333 11.9866C8.94 11.9866 9.02667 11.9666 9.11333 11.9266L11.4467 10.76C11.7867 10.5866 12 10.2466 12 9.86662V7.65995C12 7.45995 11.9 7.27995 11.7267 7.17329Z" fill="#426EFF"/>
</g>
</g>
</svg>
