<svg width="16" height="16" viewBox="0 0 16 16" fill="none" xmlns="http://www.w3.org/2000/svg">
<g id="vuesax/bold/reserve">
<g id="reserve">
<path id="Vector" d="M14.6465 12V12.6667C14.6465 13.7667 14.6465 14.6667 12.6465 14.6667H3.31314C1.31314 14.6667 1.31314 13.7667 1.31314 12.6667V12C1.31314 11.6334 1.61314 11.3334 1.97981 11.3334H13.9798C14.3465 11.3334 14.6465 11.6334 14.6465 12Z" fill="#2AC769"/>
<path id="Vector_2" d="M9.60635 3.4533C9.63969 3.31997 9.65969 3.1933 9.66635 3.0533C9.68635 2.27997 9.21302 1.59997 8.46635 1.39997C7.34635 1.0933 6.33302 1.9333 6.33302 2.99997C6.33302 3.15997 6.35302 3.30664 6.39302 3.4533C3.98635 3.96664 2.17969 6.10664 2.17969 8.66664V9.66664C2.17969 10.0333 2.47969 10.3333 2.84635 10.3333H13.1464C13.513 10.3333 13.813 10.0333 13.813 9.66664V8.66664C13.813 6.10664 12.013 3.9733 9.60635 3.4533ZM9.99969 7.8333H5.99969C5.72635 7.8333 5.49969 7.60664 5.49969 7.3333C5.49969 7.05997 5.72635 6.8333 5.99969 6.8333H9.99969C10.273 6.8333 10.4997 7.05997 10.4997 7.3333C10.4997 7.60664 10.273 7.8333 9.99969 7.8333Z" fill="#2AC769"/>
</g>
</g>
</svg>
