<svg width="16" height="16" viewBox="0 0 16 16" fill="none" xmlns="http://www.w3.org/2000/svg">
<g id="vuesax/bold/box-remove">
<g id="box-remove">
<g id="Group">
<path id="Vector" d="M11.7336 3.54006L7.96697 1.51339C7.56697 1.30006 7.09364 1.30006 6.69364 1.51339L2.93364 3.54006C2.6603 3.69339 2.48697 3.98673 2.48697 4.30673C2.48697 4.63339 2.65364 4.92673 2.93364 5.07339L6.7003 7.10006C6.9003 7.20673 7.1203 7.26006 7.33364 7.26006C7.54697 7.26006 7.77363 7.20673 7.96697 7.10006L11.7336 5.07339C12.007 4.92673 12.1803 4.63339 12.1803 4.30673C12.1803 3.98673 12.007 3.69339 11.7336 3.54006Z" fill="#FF4773"/>
<path id="Vector_2" d="M6.08 7.80673L2.57999 6.06006C2.30666 5.92006 1.99999 5.94006 1.73999 6.09339C1.48666 6.25339 1.33333 6.52673 1.33333 6.82673V10.1334C1.33333 10.7067 1.65333 11.2201 2.16666 11.4801L5.66666 13.2267C5.78666 13.2867 5.91999 13.3201 6.05333 13.3201C6.20666 13.3201 6.36666 13.2734 6.50666 13.1934C6.76 13.0334 6.91333 12.7601 6.91333 12.4601V9.15339C6.90666 8.58006 6.58666 8.06673 6.08 7.80673Z" fill="#FF4773"/>
<path id="Vector_3" d="M13.3331 6.82673V8.46673C13.0131 8.37339 12.6731 8.33339 12.3331 8.33339C11.4264 8.33339 10.5398 8.64673 9.83977 9.20673C8.87977 9.96006 8.3331 11.1001 8.3331 12.3334C8.3331 12.6601 8.3731 12.9867 8.45977 13.3001C8.35977 13.2867 8.25977 13.2467 8.16643 13.1867C7.9131 13.0334 7.75977 12.7601 7.75977 12.4601V9.15339C7.75977 8.58006 8.07977 8.06673 8.58643 7.80673L12.0864 6.06006C12.3598 5.92006 12.6664 5.94006 12.9264 6.09339C13.1798 6.25339 13.3331 6.52673 13.3331 6.82673Z" fill="#FF4773"/>
</g>
<path id="Vector_4" d="M14.4536 10.2133C13.8603 9.61998 13.0736 9.31998 12.2936 9.33331C11.5403 9.33998 10.7869 9.63998 10.2136 10.2133C9.81359 10.6066 9.5536 11.1 9.42693 11.6133C9.3536 11.8933 9.32693 12.18 9.34693 12.4666V12.5C9.34693 12.5466 9.35359 12.5866 9.36026 12.64C9.36026 12.64 9.36026 12.64 9.36693 12.6466V12.6666C9.42693 13.32 9.70693 13.9533 10.2136 14.4533C10.9869 15.2266 12.0736 15.4866 13.0536 15.24C13.3469 15.1666 13.6336 15.0466 13.9003 14.8866C14.1003 14.7733 14.2869 14.6266 14.4536 14.4533C14.9536 13.9533 15.2403 13.32 15.3003 12.66C15.3069 12.66 15.3069 12.6466 15.3069 12.64C15.3203 12.5933 15.3203 12.54 15.3203 12.4933C15.3203 12.4866 15.3269 12.4733 15.3269 12.46C15.3669 11.6533 15.0736 10.8266 14.4536 10.2133ZM13.4869 13.4733C13.2936 13.6666 12.9803 13.6666 12.7803 13.4733L12.3403 13.0333L11.8869 13.4866C11.6869 13.6866 11.3736 13.6866 11.1803 13.4866C10.9803 13.2933 10.9803 12.98 11.1803 12.78L11.6336 12.3266L11.1936 11.8866C11.0003 11.6866 11.0003 11.3733 11.1936 11.18C11.3936 10.98 11.7069 10.98 11.9069 11.18L12.3403 11.62L12.7603 11.1933C12.9603 11 13.2736 11 13.4736 11.1933C13.6669 11.3933 13.6669 11.7066 13.4736 11.9066L13.0469 12.3266L13.4869 12.76C13.6869 12.96 13.6869 13.2733 13.4869 13.4733Z" fill="#FF4773"/>
</g>
</g>
</svg>
