<svg width="16" height="16" viewBox="0 0 16 16" fill="none" xmlns="http://www.w3.org/2000/svg">
<g id="vuesax/bold/box-tick">
<g id="box-tick">
<g id="Group">
<path id="Vector" d="M11.7337 3.54006L7.967 1.51339C7.567 1.30006 7.09367 1.30006 6.69367 1.51339L2.93367 3.54006C2.66033 3.69339 2.487 3.98673 2.487 4.30673C2.487 4.63339 2.65367 4.92673 2.93367 5.07339L6.70033 7.10006C6.90033 7.20673 7.12033 7.26006 7.33367 7.26006C7.547 7.26006 7.77367 7.20673 7.967 7.10006L11.7337 5.07339C12.007 4.92673 12.1803 4.63339 12.1803 4.30673C12.1803 3.98673 12.007 3.69339 11.7337 3.54006Z" fill="#6A45FE"/>
<path id="Vector_2" d="M6.08001 7.80673L2.58001 6.06006C2.30668 5.92006 2.00001 5.94006 1.74001 6.09339C1.48668 6.25339 1.33334 6.52673 1.33334 6.82673V10.1334C1.33334 10.7067 1.65334 11.2201 2.16668 11.4801L5.66668 13.2267C5.78668 13.2867 5.92001 13.3201 6.05334 13.3201C6.20668 13.3201 6.36668 13.2734 6.50668 13.1934C6.76001 13.0334 6.91334 12.7601 6.91334 12.4601V9.15339C6.90668 8.58006 6.58668 8.06673 6.08001 7.80673Z" fill="#6A45FE"/>
<path id="Vector_3" d="M13.3331 6.82673V8.46673C13.0131 8.37339 12.6731 8.33339 12.3331 8.33339C11.4264 8.33339 10.5398 8.64673 9.83977 9.20673C8.87977 9.96006 8.3331 11.1001 8.3331 12.3334C8.3331 12.6601 8.3731 12.9867 8.45977 13.3001C8.35977 13.2867 8.25977 13.2467 8.16643 13.1867C7.9131 13.0334 7.75977 12.7601 7.75977 12.4601V9.15339C7.75977 8.58006 8.07977 8.06673 8.58643 7.80673L12.0864 6.06006C12.3598 5.92006 12.6664 5.94006 12.9264 6.09339C13.1798 6.25339 13.3331 6.52673 13.3331 6.82673Z" fill="#6A45FE"/>
</g>
<path id="Vector_4" d="M14.6533 10.4467C14.1067 9.77335 13.2733 9.34668 12.3333 9.34668C11.6267 9.34668 10.9733 9.59335 10.46 10.0067C9.76668 10.5533 9.33334 11.4 9.33334 12.3467C9.33334 12.9067 9.49334 13.44 9.76668 13.8933C9.94668 14.1933 10.1733 14.4533 10.44 14.6667H10.4467C10.96 15.0933 11.62 15.3467 12.3333 15.3467C13.0933 15.3467 13.78 15.0667 14.3067 14.6C14.54 14.4 14.74 14.16 14.9 13.8933C15.1733 13.44 15.3333 12.9067 15.3333 12.3467C15.3333 11.6267 15.08 10.96 14.6533 10.4467ZM13.84 11.9733L12.24 13.4533C12.1467 13.54 12.02 13.5867 11.9 13.5867C11.7733 13.5867 11.6467 13.54 11.5467 13.44L10.8067 12.7C10.6133 12.5067 10.6133 12.1867 10.8067 11.9933C11 11.8 11.32 11.8 11.5133 11.9933L11.9133 12.3933L13.16 11.24C13.36 11.0533 13.68 11.0667 13.8667 11.2667C14.06 11.4733 14.0467 11.7867 13.84 11.9733Z" fill="#6A45FE"/>
</g>
</g>
</svg>
