<svg width="148" height="148" viewBox="0 0 148 148" fill="none" xmlns="http://www.w3.org/2000/svg">
<g id="Group 1000003727">
<path id="Ellipse 247" d="M148 74C148 114.869 114.869 148 74 148C33.1309 148 0 114.869 0 74C0 33.1309 33.1309 0 74 0C114.869 0 148 33.1309 148 74ZM8.88 74C8.88 109.965 38.0352 139.12 74 139.12C109.965 139.12 139.12 109.965 139.12 74C139.12 38.0352 109.965 8.88 74 8.88C38.0352 8.88 8.88 38.0352 8.88 74Z" fill="#FFF1F7"/>
<path id="Ellipse 270" d="M7.65648 94.9077C5.31773 95.6447 4.00658 98.1441 4.88254 100.434C8.6265 110.224 14.4141 119.123 21.8778 126.529C30.394 134.979 40.837 141.232 52.307 144.749C63.7771 148.266 75.9302 148.941 87.7194 146.717C99.5085 144.493 110.58 139.436 119.98 131.981C129.38 124.527 136.827 114.899 141.679 103.926C146.531 92.954 148.642 80.9666 147.831 68.997C147.02 57.0273 143.31 45.4343 137.023 35.2169C131.512 26.262 124.166 18.5991 115.487 12.7232C113.456 11.3485 110.724 12.0557 109.473 14.165C108.223 16.2743 108.929 18.9857 110.948 20.377C118.394 25.5074 124.704 32.1424 129.46 39.8708C134.993 48.8622 138.257 59.064 138.971 69.5973C139.685 80.1306 137.827 90.6796 133.557 100.335C129.288 109.991 122.735 118.464 114.463 125.023C106.19 131.583 96.4475 136.034 86.073 137.991C75.6986 139.948 65.0038 139.354 54.9102 136.259C44.8165 133.164 35.6267 127.662 28.1325 120.225C21.6909 113.834 16.6681 106.178 13.369 97.7592C12.4743 95.4761 9.99524 94.1706 7.65648 94.9077Z" fill="#FF4F99"/>
<path id="Ellipse 271" d="M133.081 74.0001C133.081 106.629 106.629 133.081 74 133.081C41.3706 133.081 14.9193 106.629 14.9193 74.0001C14.9193 41.3707 41.3706 14.9194 74 14.9194C106.629 14.9194 133.081 41.3707 133.081 74.0001ZM22.009 74.0001C22.009 102.714 45.2862 125.991 74 125.991C102.714 125.991 125.991 102.714 125.991 74.0001C125.991 45.2863 102.714 22.0091 74 22.0091C45.2862 22.0091 22.009 45.2863 22.009 74.0001Z" fill="#EAEFFF"/>
<path id="Ellipse 252" d="M115.915 110.433C117.393 111.717 119.641 111.567 120.835 110.015C125.411 104.063 128.818 97.2845 130.862 90.0378C133.227 81.6521 133.709 72.8471 132.271 64.2536C130.834 55.6601 127.514 47.4909 122.548 40.3313C118.257 34.1442 112.83 28.8433 106.566 24.705C104.932 23.6259 102.757 24.2152 101.778 25.9105C100.799 27.6057 101.387 29.7639 103.012 30.8563C108.375 34.4628 113.028 39.0437 116.722 44.3716C121.092 50.672 124.014 57.8609 125.279 65.4232C126.543 72.9855 126.12 80.7339 124.039 88.1133C122.279 94.3535 119.37 100.199 115.472 105.355C114.292 106.916 114.438 109.148 115.915 110.433Z" fill="#567DFF"/>
<path id="Ellipse 272" d="M118.161 73.9999C118.161 98.3895 98.3896 118.161 74 118.161C49.6104 118.161 29.8387 98.3895 29.8387 73.9999C29.8387 49.6103 49.6104 29.8386 74 29.8386C98.3896 29.8386 118.161 49.6103 118.161 73.9999ZM35.1381 73.9999C35.1381 95.4628 52.5371 112.862 74 112.862C95.4629 112.862 112.862 95.4628 112.862 73.9999C112.862 52.5371 95.4629 35.138 74 35.138C52.5371 35.138 35.1381 52.5371 35.1381 73.9999Z" fill="#F7EFFF"/>
<path id="Ellipse 253" d="M110.956 55.0935C112.259 54.427 112.782 52.8258 112.038 51.5653C108.04 44.7858 102.301 39.1969 95.4176 35.3798C94.1378 34.6701 92.551 35.2351 91.9193 36.5551C91.2876 37.8751 91.851 39.4495 93.125 40.1696C98.9667 43.472 103.855 48.2321 107.311 53.9842C108.065 55.2385 109.653 55.76 110.956 55.0935Z" fill="#A953FF"/>
<path id="Ellipse 268" d="M103.242 74C103.242 90.1499 90.1499 103.242 74 103.242C57.8501 103.242 44.7581 90.1499 44.7581 74C44.7581 57.8501 57.8501 44.7581 74 44.7581C90.1499 44.7581 103.242 57.8501 103.242 74ZM48.2671 74C48.2671 88.2119 59.7881 99.7329 74 99.7329C88.2119 99.7329 99.7329 88.2119 99.7329 74C99.7329 59.7881 88.2119 48.2671 74 48.2671C59.7881 48.2671 48.2671 59.7881 48.2671 74Z" fill="#FFEFEF"/>
<path id="Ellipse 269" d="M98.471 61.4809C99.3336 61.0395 99.6797 59.9793 99.1875 59.1446C96.5399 54.6555 92.7397 50.9548 88.1819 48.4272C87.3345 47.9573 86.2838 48.3314 85.8655 49.2055C85.4472 50.0795 85.8203 51.122 86.6638 51.5989C90.532 53.7855 93.7687 56.9375 96.0573 60.7463C96.5563 61.5769 97.6083 61.9222 98.471 61.4809Z" fill="#FB4E4E"/>
</g>
</svg>
