<svg width="16" height="16" viewBox="0 0 16 16" fill="none" xmlns="http://www.w3.org/2000/svg">
<g id="vuesax/bold/box-time">
<g id="box-time">
<g id="Group">
<path id="Vector" d="M11.7336 3.54006L7.96697 1.51339C7.56697 1.30006 7.09364 1.30006 6.69364 1.51339L2.93364 3.54006C2.6603 3.69339 2.48697 3.98673 2.48697 4.30673C2.48697 4.63339 2.65364 4.92673 2.93364 5.07339L6.7003 7.10006C6.9003 7.20673 7.1203 7.26006 7.33364 7.26006C7.54697 7.26006 7.77363 7.20673 7.96697 7.10006L11.7336 5.07339C12.007 4.92673 12.1803 4.63339 12.1803 4.30673C12.1803 3.98673 12.007 3.69339 11.7336 3.54006Z" fill="#F6A609"/>
<path id="Vector_2" d="M6.08 7.80673L2.57999 6.06006C2.30666 5.92006 1.99999 5.94006 1.73999 6.09339C1.48666 6.25339 1.33333 6.52673 1.33333 6.82673V10.1334C1.33333 10.7067 1.65333 11.2201 2.16666 11.4801L5.66666 13.2267C5.78666 13.2867 5.91999 13.3201 6.05333 13.3201C6.20666 13.3201 6.36666 13.2734 6.50666 13.1934C6.76 13.0334 6.91333 12.7601 6.91333 12.4601V9.15339C6.90666 8.58006 6.58666 8.06673 6.08 7.80673Z" fill="#F6A609"/>
<path id="Vector_3" d="M13.3331 6.82673V8.46673C13.0131 8.37339 12.6731 8.33339 12.3331 8.33339C11.4264 8.33339 10.5398 8.64673 9.83977 9.20673C8.87977 9.96006 8.3331 11.1001 8.3331 12.3334C8.3331 12.6601 8.3731 12.9867 8.45977 13.3001C8.35977 13.2867 8.25977 13.2467 8.16643 13.1867C7.9131 13.0334 7.75977 12.7601 7.75977 12.4601V9.15339C7.75977 8.58006 8.07977 8.06673 8.58643 7.80673L12.0864 6.06006C12.3598 5.92006 12.6664 5.94006 12.9264 6.09339C13.1798 6.25339 13.3331 6.52673 13.3331 6.82673Z" fill="#F6A609"/>
</g>
<path id="Vector_4" d="M14.6533 10.4334C14.1067 9.76004 13.2733 9.33337 12.3333 9.33337C11.6267 9.33337 10.9733 9.58004 10.46 9.99337C9.76666 10.54 9.33333 11.3867 9.33333 12.3334C9.33333 13.2734 9.75999 14.1067 10.4333 14.6534C10.9467 15.08 11.6133 15.3334 12.3333 15.3334C13.0933 15.3334 13.78 15.0467 14.3133 14.5867C14.9333 14.0334 15.3333 13.2334 15.3333 12.3334C15.3333 11.6134 15.08 10.9467 14.6533 10.4334ZM13.02 12.52C13.02 12.6934 12.9267 12.86 12.78 12.9467L11.84 13.5067C11.76 13.5534 11.6733 13.58 11.58 13.58C11.4133 13.58 11.2467 13.4934 11.1533 13.34C11.0133 13.1 11.0867 12.7934 11.3267 12.6534L12.02 12.24V11.4C12.02 11.1267 12.2467 10.9 12.52 10.9C12.7933 10.9 13.02 11.1267 13.02 11.4V12.52Z" fill="#F6A609"/>
</g>
</g>
</svg>
