<svg width="16" height="16" viewBox="0 0 16 16" fill="none" xmlns="http://www.w3.org/2000/svg">
<g id="vuesax/bold/truck-tick">
<g id="truck-tick">
<path id="Vector" d="M14.3333 10.3334C14.52 10.3334 14.6667 10.48 14.6667 10.6667V11.3334C14.6667 12.44 13.7733 13.3334 12.6667 13.3334C12.6667 12.2334 11.7667 11.3334 10.6667 11.3334C9.56666 11.3334 8.66666 12.2334 8.66666 13.3334H7.33333C7.33333 12.2334 6.43333 11.3334 5.33333 11.3334C4.23333 11.3334 3.33333 12.2334 3.33333 13.3334C2.22666 13.3334 1.33333 12.44 1.33333 11.3334V10C1.33333 9.63337 1.63333 9.33337 1.99999 9.33337H8.33333C9.25333 9.33337 9.99999 8.58671 9.99999 7.66671V4.00004C9.99999 3.63337 10.3 3.33337 10.6667 3.33337H11.2267C11.7067 3.33337 12.1467 3.59337 12.3867 4.00671L12.8133 4.75337C12.8733 4.86004 12.7933 5.00004 12.6667 5.00004C11.7467 5.00004 11 5.74671 11 6.66671V8.66671C11 9.58671 11.7467 10.3334 12.6667 10.3334H14.3333Z" fill="#008BBA"/>
<path id="Vector_2" d="M5.33333 14.6667C6.06971 14.6667 6.66667 14.0697 6.66667 13.3333C6.66667 12.597 6.06971 12 5.33333 12C4.59695 12 4 12.597 4 13.3333C4 14.0697 4.59695 14.6667 5.33333 14.6667Z" fill="#008BBA"/>
<path id="Vector_3" d="M10.6667 14.6667C11.403 14.6667 12 14.0697 12 13.3333C12 12.597 11.403 12 10.6667 12C9.93028 12 9.33333 12.597 9.33333 13.3333C9.33333 14.0697 9.93028 14.6667 10.6667 14.6667Z" fill="#008BBA"/>
<path id="Vector_4" d="M14.6667 8.35333V9.33333H12.6667C12.3 9.33333 12 9.03333 12 8.66667V6.66667C12 6.3 12.3 6 12.6667 6H13.5267L14.4933 7.69333C14.6067 7.89333 14.6667 8.12 14.6667 8.35333Z" fill="#008BBA"/>
<path id="Vector_5" d="M8.72 1.33337H3.79333C2.43333 1.33337 1.33333 2.43337 1.33333 3.79337V8.04671C1.33333 8.41337 1.63333 8.71337 1.99999 8.71337H8.09999C8.77999 8.71337 9.33333 8.16004 9.33333 7.48004V1.94671C9.33333 1.60671 9.06 1.33337 8.72 1.33337ZM6.71333 4.71337L5.31999 6.06004C5.22 6.15337 5.09333 6.20004 4.97333 6.20004C4.84666 6.20004 4.72 6.15337 4.62666 6.06004L3.95333 5.42004C3.75333 5.22671 3.74666 4.90671 3.93999 4.70671C4.12666 4.50671 4.44666 4.50671 4.64666 4.69337L4.97333 5.00671L6.01999 3.99337C6.22 3.80004 6.53333 3.80671 6.72666 4.00671C6.92 4.20671 6.91333 4.52004 6.71333 4.71337Z" fill="#008BBA"/>
</g>
</g>
</svg>
