<svg width="16" height="16" viewBox="0 0 16 16" fill="none" xmlns="http://www.w3.org/2000/svg">
<g id="vuesax/bold/reserve">
<g id="reserve">
<path id="Vector" d="M14.6467 12V12.6667C14.6467 13.7667 14.6467 14.6667 12.6467 14.6667H3.31332C1.31332 14.6667 1.31332 13.7667 1.31332 12.6667V12C1.31332 11.6334 1.61332 11.3334 1.97999 11.3334H13.98C14.3467 11.3334 14.6467 11.6334 14.6467 12Z" fill="#A0A3BD"/>
<path id="Vector_2" d="M9.60666 3.4533C9.63999 3.31997 9.65999 3.1933 9.66666 3.0533C9.68666 2.27997 9.21333 1.59997 8.46666 1.39997C7.34666 1.0933 6.33333 1.9333 6.33333 2.99997C6.33333 3.15997 6.35333 3.30664 6.39333 3.4533C3.98666 3.96664 2.17999 6.10664 2.17999 8.66664V9.66664C2.17999 10.0333 2.47999 10.3333 2.84666 10.3333H13.1467C13.5133 10.3333 13.8133 10.0333 13.8133 9.66664V8.66664C13.8133 6.10664 12.0133 3.9733 9.60666 3.4533ZM9.99999 7.8333H5.99999C5.72666 7.8333 5.49999 7.60664 5.49999 7.3333C5.49999 7.05997 5.72666 6.8333 5.99999 6.8333H9.99999C10.2733 6.8333 10.5 7.05997 10.5 7.3333C10.5 7.60664 10.2733 7.8333 9.99999 7.8333Z" fill="#A0A3BD"/>
</g>
</g>
</svg>
