<svg width="16" height="16" viewBox="0 0 16 16" fill="none" xmlns="http://www.w3.org/2000/svg">
<g id="vuesax/bold/box">
<path id="Vector" d="M13.4733 5.21329L8.33999 8.18663C8.13332 8.30663 7.87332 8.30663 7.65999 8.18663L2.52666 5.21329C2.15999 4.99996 2.06666 4.49996 2.34666 4.18663C2.53999 3.96663 2.75999 3.78663 2.99332 3.65996L6.60666 1.65996C7.37999 1.22663 8.63332 1.22663 9.40666 1.65996L13.02 3.65996C13.2533 3.78663 13.4733 3.97329 13.6667 4.18663C13.9333 4.49996 13.84 4.99996 13.4733 5.21329Z" fill="#FF006B"/>
<path id="Vector_2" d="M7.6203 9.42663V13.9733C7.6203 14.48 7.10697 14.8133 6.65364 14.5933C5.2803 13.92 2.96697 12.66 2.96697 12.66C2.15364 12.2 1.48697 11.04 1.48697 10.0866V6.64663C1.48697 6.11996 2.0403 5.78663 2.49364 6.04663L7.28697 8.82663C7.48697 8.95329 7.6203 9.17996 7.6203 9.42663Z" fill="#FF006B"/>
<path id="Vector_3" d="M8.38022 9.42663V13.9733C8.38022 14.48 8.89355 14.8133 9.34689 14.5933C10.7202 13.92 13.0336 12.66 13.0336 12.66C13.8469 12.2 14.5136 11.04 14.5136 10.0866V6.64663C14.5136 6.11996 13.9602 5.78663 13.5069 6.04663L8.71355 8.82663C8.51355 8.95329 8.38022 9.17996 8.38022 9.42663Z" fill="#FF006B"/>
</g>
</svg>
